<svg width="24.000000" height="24.000000" viewBox="0 0 24 24" fill="none" xmlns="http://www.w3.org/2000/svg" xmlns:xlink="http://www.w3.org/1999/xlink">
	<desc>
			Created with Pixso.
	</desc>
	<defs/>
	<path d="M12 24L6 24C4.4 24 2.88 23.36 1.75 22.24C0.63 21.11 0 19.59 0 18L0 6C0 4.4 0.63 2.88 1.75 1.75C2.88 0.63 4.4 0 6 0L18 0C19.59 0 21.11 0.63 22.24 1.75C23.36 2.88 24 4.4 24 6L24 18C24 19.59 23.36 21.11 22.24 22.24C21.11 23.36 19.59 24 18 24L15.75 24C15.75 23.5 15.55 23.02 15.2 22.67C14.84 22.32 14.37 22.12 13.87 22.12C13.37 22.12 12.9 22.32 12.54 22.67C12.19 23.02 12 23.5 12 24Z" fill="#FFFFFF" fill-opacity="1.000000" fill-rule="evenodd"/>
	<path d="M11.25 6.75L18 6.75C18.86 6.75 19.69 6.41 20.32 5.82C20.95 5.22 21.32 4.41 21.37 3.54C21.41 2.68 21.12 1.83 20.56 1.17C20 0.52 19.2 0.1 18.34 0.01C18.23 0.01 18.11 0 18 0L6 0C4.4 0 2.88 0.63 1.75 1.75C0.63 2.88 0 4.4 0 6L0 18C0 15.01 1.18 12.15 3.29 10.04C5.4 7.93 8.26 6.75 11.25 6.75Z" fill="#FFFFFF" fill-opacity="1.000000" fill-rule="evenodd"/>
	<path d="M18 12C16.81 12 15.65 12.35 14.66 13.01C13.67 13.67 12.91 14.6 12.45 15.7C12 16.8 11.88 18 12.11 19.17C12.34 20.33 12.91 21.4 13.75 22.24C14.59 23.08 15.66 23.65 16.82 23.88C17.99 24.11 19.2 23.99 20.29 23.54C21.39 23.08 22.32 22.32 22.98 21.33C23.64 20.34 24 19.18 24 18L24 6C24 7.59 23.36 9.11 22.24 10.24C21.11 11.36 19.59 12 18 12Z" fill="#FFFFFF" fill-opacity="1.000000" fill-rule="evenodd"/>
	<path d="M19.5 6.75C19.5 6.94 19.42 7.13 19.28 7.28C19.13 7.42 18.94 7.5 18.75 7.5L16.5 7.5C16.3 7.5 16.11 7.57 15.96 7.71C15.82 7.86 15.75 8.05 15.75 8.25L15.75 11.25L18.58 11.25C18.69 11.25 18.8 11.27 18.9 11.32C19 11.36 19.09 11.43 19.16 11.52C19.23 11.61 19.28 11.71 19.31 11.81C19.33 11.92 19.34 12.03 19.32 12.14C19.18 12.84 18.99 13.78 18.87 14.39C18.83 14.56 18.74 14.72 18.61 14.83C18.47 14.93 18.3 15 18.13 15L15.75 15L15.75 24L12 24L12 15L9.75 15C9.55 15 9.36 14.92 9.21 14.78C9.07 14.63 9 14.44 9 14.25L9 12C9 11.8 9.07 11.61 9.21 11.46C9.36 11.32 9.55 11.25 9.75 11.25L12 11.25L12 8.25C12 7.05 12.47 5.91 13.31 5.06C14.16 4.22 15.3 3.75 16.5 3.75L18.75 3.75C18.94 3.75 19.13 3.82 19.28 3.96C19.42 4.11 19.5 4.3 19.5 4.5L19.5 6.75Z" fill="#000000" fill-opacity="1.000000" fill-rule="evenodd"/>
</svg>
