<svg width="23.995117" height="24.000000" viewBox="0 0 23.9951 24" fill="none" xmlns="http://www.w3.org/2000/svg" xmlns:xlink="http://www.w3.org/1999/xlink">
	<desc>
			Created with Pixso.
	</desc>
	<defs/>
	<path d="M1.56 1.66C-0.32 3.61 0.06 5.69 0.06 11.99C0.06 17.23 -0.85 22.47 3.93 23.71C5.42 24.09 18.65 24.09 20.14 23.71C22.13 23.19 23.75 21.58 23.97 18.76C24 18.37 24 5.62 23.97 5.22C23.73 2.22 21.89 0.49 19.45 0.14C18.9 0.06 18.79 0.04 15.93 0.03C5.78 0.04 3.56 -0.41 1.56 1.66Z" fill="#FFFFFF" fill-opacity="1.000000" fill-rule="nonzero"/>
	<path d="M12.03 3.16C8.41 3.16 4.97 2.84 3.66 6.21C3.11 7.6 3.19 9.41 3.19 12C3.19 14.27 3.12 16.4 3.66 17.78C4.97 21.16 8.43 20.83 12.02 20.83C15.49 20.83 19.06 21.19 20.39 17.78C20.94 16.38 20.86 14.6 20.86 12C20.86 8.55 21.05 6.32 19.37 4.65C17.68 2.95 15.39 3.16 12.02 3.16L12.03 3.16ZM11.23 4.75C18.79 4.74 19.75 3.9 19.22 15.56C19.03 19.69 15.89 19.24 12.03 19.24C4.99 19.24 4.79 19.03 4.79 11.99C4.79 4.87 5.34 4.76 11.23 4.75L11.23 4.75ZM16.74 6.22C16.16 6.22 15.68 6.7 15.68 7.28C15.68 7.87 16.16 8.34 16.74 8.34C17.33 8.34 17.8 7.87 17.8 7.28C17.8 6.7 17.33 6.22 16.74 6.22ZM12.03 7.46C9.52 7.46 7.49 9.49 7.49 12C7.49 14.5 9.52 16.53 12.03 16.53C14.53 16.53 16.56 14.5 16.56 12C16.56 9.49 14.53 7.46 12.03 7.46ZM12.03 9.05C15.92 9.05 15.92 14.94 12.03 14.94C8.13 14.94 8.13 9.05 12.03 9.05Z" fill="#000000" fill-opacity="1.000000" fill-rule="nonzero"/>
</svg>
