<svg width="40.000977" height="36.000000" viewBox="0 0 40.001 36" fill="none" xmlns="http://www.w3.org/2000/svg" xmlns:xlink="http://www.w3.org/1999/xlink">
	<desc>
			Created with Pixso.
	</desc>
	<defs/>
	<path id="Vector" d="M36 36C37.06 36 38.07 35.57 38.82 34.82C39.57 34.07 40 33.06 40 32L40 22.23C40 21.17 39.57 20.15 38.82 19.4C38.07 18.65 37.06 18.23 36 18.23L30.44 18.23C30.44 16.82 30.53 15.42 30.69 14.01C30.94 12.52 31.35 11.2 31.93 10.04C32.51 8.89 33.26 7.97 34.17 7.31C35.07 6.57 36.23 6.19 37.64 6.19L37.64 0C35.33 0 33.3 0.49 31.56 1.48C29.83 2.46 28.35 3.82 27.22 5.45C26.08 7.25 25.25 9.22 24.74 11.28C24.23 13.56 23.98 15.89 24 18.23L24 32C24 33.06 24.42 34.07 25.17 34.82C25.92 35.57 26.93 36 28 36L36 36ZM12 36C13.06 36 14.07 35.57 14.82 34.82C15.57 34.07 16 33.06 16 32L16 22.23C16 21.17 15.57 20.15 14.82 19.4C14.07 18.65 13.06 18.23 12 18.23L6.44 18.23C6.44 16.82 6.53 15.42 6.69 14.01C6.94 12.52 7.36 11.2 7.93 10.04C8.51 8.89 9.26 7.97 10.17 7.31C11.07 6.57 12.23 6.19 13.64 6.19L13.64 0C11.33 0 9.3 0.49 7.56 1.48C5.83 2.46 4.35 3.82 3.22 5.45C2.08 7.25 1.25 9.22 0.74 11.28C0.23 13.56 -0.02 15.89 0 18.23L0 32C0 33.06 0.42 34.07 1.17 34.82C1.92 35.57 2.93 36 4 36L12 36Z" fill="#202020" fill-opacity="1.000000" fill-rule="nonzero"/>
</svg>
