<svg width="36.000000" height="36.000000" viewBox="0 0 36 36" fill="none" xmlns="http://www.w3.org/2000/svg" xmlns:xlink="http://www.w3.org/1999/xlink">
	<desc>
			Created with Pixso.
	</desc>
	<defs>
		<clipPath id="clip71_2498">
			<rect id="bytesize:arrow-top" rx="0.000000" width="35.250000" height="35.250000" transform="translate(0.375000 36.375000) rotate(-90.000000)" fill="white" fill-opacity="0"/>
		</clipPath>
	</defs>
	<rect id="bytesize:arrow-top" rx="0.000000" width="35.250000" height="35.250000" transform="translate(0.375000 36.375000) rotate(-90.000000)" fill="#1E1E1E" fill-opacity="0"/>
	<g clip-path="url(#clip71_2498)">
		<path id="Vector (Stroke)" d="M3.21 18.09C2.92 17.74 2.92 17.25 3.21 16.9L11.09 7.35C11.43 6.94 12.04 6.87 12.47 7.2C12.89 7.53 12.96 8.13 12.62 8.55L6.03 16.54L31.54 16.54C32.09 16.54 32.53 16.97 32.53 17.5C32.53 18.02 32.09 18.45 31.54 18.45L6.03 18.45L12.62 26.44C12.96 26.86 12.89 27.46 12.47 27.79C12.04 28.12 11.43 28.05 11.09 27.64L3.21 18.09Z" fill="#FFB700" fill-opacity="1.000000" fill-rule="evenodd"/>
	</g>
</svg>
