<svg width="32.000000" height="32.000000" viewBox="0 0 32 32" fill="none" xmlns="http://www.w3.org/2000/svg" xmlns:xlink="http://www.w3.org/1999/xlink">
	<desc>
			Created with Pixso.
	</desc>
	<defs/>
	<rect id="hugeicons:hold-phone" rx="0.000000" width="31.000000" height="31.000000" transform="translate(0.500000 0.500000)" fill="#FFFFFF" fill-opacity="0"/>
	<path id="Vector" d="M28 26.66C27.14 24.95 25.33 22.69 25.33 20.7C25.33 18.43 25.82 15.64 24.77 13.54C24.32 12.65 24 11.75 24 10.74L24 5.9C24 5.75 23.93 5.6 23.83 5.5C23.72 5.39 23.57 5.33 23.42 5.33C22.97 5.33 22.53 5.42 22.11 5.59C21.7 5.76 21.32 6.01 21 6.33C20.68 6.65 20.43 7.03 20.26 7.44C20.08 7.86 20 8.31 20 8.76M10.66 24L15.51 27.02C15.83 27.22 16.1 27.49 16.31 27.81L17.33 29.33" stroke="#FFFFFF" stroke-opacity="1.000000" stroke-width="2.000000" stroke-linejoin="round" stroke-linecap="round"/>
	<path id="Vector" d="M6.7 20C6.77 21.46 6.99 22.37 7.64 23.02C8.61 24 10.18 24 13.33 24C16.47 24 18.04 24 19.02 23.02C20 22.04 20 20.47 20 17.33L20 9.33C20 6.19 20 4.61 19.02 3.64C18.04 2.66 16.47 2.66 13.33 2.66C10.19 2.66 8.61 2.66 7.64 3.64C6.99 4.29 6.77 5.2 6.7 6.66" stroke="#FFFFFF" stroke-opacity="1.000000" stroke-width="2.000000" stroke-linejoin="round" stroke-linecap="round"/>
	<path id="Vector" d="M7.66 10C8.1 10 8.53 9.82 8.84 9.51C9.15 9.19 9.33 8.77 9.33 8.33C9.33 7.89 9.15 7.46 8.84 7.15C8.53 6.84 8.1 6.66 7.66 6.66L5.66 6.66C5.22 6.66 4.8 6.84 4.48 7.15C4.17 7.46 4 7.89 4 8.33C4 8.77 4.17 9.19 4.48 9.51C4.8 9.82 5.22 10 5.66 10L7.66 10ZM5.66 10L9 10C9.44 10 9.86 10.17 10.17 10.48C10.49 10.8 10.66 11.22 10.66 11.66C10.66 12.1 10.49 12.53 10.17 12.84C9.86 13.15 9.44 13.33 9 13.33L5.66 13.33C5.22 13.33 4.8 13.15 4.48 12.84C4.17 12.53 4 12.1 4 11.66C4 11.22 4.17 10.8 4.48 10.48C4.8 10.17 5.22 10 5.66 10M5.66 13.33L7.66 13.33C8.1 13.33 8.53 13.5 8.84 13.82C9.15 14.13 9.33 14.55 9.33 15C9.33 15.44 9.15 15.86 8.84 16.17C8.53 16.49 8.1 16.66 7.66 16.66L5.66 16.66C5.22 16.66 4.8 16.49 4.48 16.17C4.17 15.86 4 15.44 4 15C4 14.55 4.17 14.13 4.48 13.82C4.8 13.5 5.22 13.33 5.66 13.33M5.66 16.66L7 16.66C7.44 16.66 7.86 16.84 8.17 17.15C8.49 17.46 8.66 17.89 8.66 18.33C8.66 18.77 8.49 19.19 8.17 19.51C7.86 19.82 7.44 20 7 20L5.66 20C5.22 20 4.8 19.82 4.48 19.51C4.17 19.19 4 18.77 4 18.33C4 17.89 4.17 17.46 4.48 17.15C4.8 16.84 5.22 16.66 5.66 16.66M13.33 20L13.34 20" stroke="#FFFFFF" stroke-opacity="1.000000" stroke-width="2.000000" stroke-linejoin="round" stroke-linecap="round"/>
</svg>
