<svg width="89" height="67" viewBox="0 0 89 67" fill="none" xmlns="http://www.w3.org/2000/svg">
<g opacity="0.2" clip-path="url(#clip0_39_667)">
<path d="M37.6092 28.4959H31.3621L27.141 28.4475C24.4861 28.4596 21.8131 28.4777 19.1402 28.4959H6.18042L6.40418 27.7037C6.80936 26.2825 7.31735 24.813 7.81324 23.3979C8.40589 21.6864 9.02273 19.9145 9.45815 18.2152L9.57305 17.7616L10.0387 17.7495C10.8612 17.7314 11.4236 17.7253 11.9437 17.7314H26.9172C35.426 6.14441 43.9711 3.15696 44.334 3.02996C44.4368 2.98158 60.1058 -3.79159 73.5251 3.06625C86.9747 9.93618 88.801 22.8052 88.8192 22.9383L88.9099 23.6398L72.3217 23.5611L72.2068 23.0834C71.7411 21.1119 69.4491 18.7897 66.3649 17.169C63.9883 15.9171 57.6807 13.3228 50.4177 16.1469C41.5461 19.6001 38.1232 27.2501 37.7664 28.1089L37.6092 28.4898V28.4959ZM27.147 27.2078L31.3682 27.2562H36.7927C37.6636 25.3814 41.4191 18.324 49.9702 14.9979C55.419 12.8753 61.6055 13.2683 66.9455 16.0744C70.1567 17.7616 72.5273 20.1201 73.2832 22.3275L87.4585 22.394C86.8719 19.6847 84.0296 9.82128 72.9627 4.17294C60.0574 -2.41881 44.9327 4.11851 44.7815 4.19108C44.6424 4.23946 36.0429 7.26925 27.7397 18.7171L27.5522 18.9711H27.2317H11.9376C11.5324 18.9711 11.097 18.9711 10.5346 18.9772C10.0992 20.5797 9.53072 22.2186 8.9804 23.803C8.58732 24.94 8.18213 26.1132 7.83138 27.2562H19.1341C21.8071 27.238 24.4801 27.2199 27.147 27.2078Z" fill="white"/>
<path d="M83.3461 66.9999H82.8139C80.0925 66.9999 77.3712 66.9999 74.6498 66.9999H67.8162L68.2637 63.7464C68.4088 62.6881 68.56 61.6298 68.6991 60.5715C67.5138 61.3093 66.2922 61.9866 65.1069 62.6458L64.3993 63.0388C58.0918 65.7965 52.8849 66.9758 47.9623 66.7883C45.9243 66.9334 43.9528 66.5222 42.0418 66.117C41.4673 65.9961 40.8867 65.8691 40.3062 65.7663C33.5935 63.8613 27.7395 59.6462 24.2018 54.1853C23.8933 53.7378 23.6393 53.248 23.3974 52.7702C23.1253 52.232 22.8653 51.724 22.5266 51.2886C22.2182 51.2039 21.8614 51.2039 21.4864 51.21C21.3171 51.21 21.1538 51.21 20.9845 51.21C17.0718 51.2281 13.1288 51.2221 9.19192 51.2221C6.39799 51.2221 3.60405 51.2221 0.810118 51.2221H-0.000244141L0.223513 50.4359C0.628694 49.0027 1.11854 47.5755 1.59024 46.2027C2.15266 44.5517 2.73926 42.8403 3.18073 41.1349L3.28354 40.7358L3.69476 40.6753C4.29346 40.5906 4.99497 40.4999 5.71462 40.4999H13.915C20.5975 40.506 27.5158 40.512 34.3071 40.4878H34.809L34.9179 40.9716C35.1961 42.2234 35.8311 43.4148 36.4419 44.5578L36.6112 44.8722C37.1615 45.9668 38.0323 46.8135 38.9576 47.7085C39.3023 48.0411 39.641 48.3737 39.9675 48.7124C41.8483 50.6173 44.5697 51.3491 47.2003 52.0627L47.5269 52.1534C55.7454 53.3206 64.6171 48.8515 68.7898 41.4856C68.7233 41.3828 68.6447 41.274 68.5781 41.1772C63.5466 41.1107 58.4365 41.1288 53.4897 41.1409C51.8085 41.1409 50.1333 41.153 48.4521 41.153H47.926L46.4444 32.2451L52.3165 26.6875H52.5644C53.4353 26.6875 55.2979 26.6814 56.1385 26.6633H56.1506C60.4261 26.6935 64.7803 26.6814 68.9894 26.6693C75.3029 26.6512 81.8342 26.633 88.2566 26.76L88.94 26.7721L88.8614 27.4494C88.4139 31.2352 87.8696 35.0632 87.3374 38.7703C86.896 41.8787 86.4363 45.0899 86.0372 48.2588C85.2329 54.0583 84.3621 60.2812 83.4247 66.492L83.3461 67.0181V66.9999ZM77.5284 65.7542C79.1128 65.7542 80.6973 65.7542 82.2817 65.7542C83.1889 59.7248 84.0295 53.6955 84.8096 48.0713C85.2087 44.9025 85.6683 41.6852 86.1098 38.5708C86.6057 35.0935 87.1197 31.5073 87.5491 27.9635C81.3625 27.8546 75.0792 27.8728 68.9954 27.8909C64.7864 27.903 60.4322 27.9151 56.1506 27.8849C55.3765 27.897 53.7497 27.903 52.8063 27.9091L47.7688 32.6745L48.9662 39.9012C50.472 39.9012 51.9718 39.8952 53.4776 39.8891C58.5333 39.877 63.7644 39.8589 68.9047 39.9314H69.2252L69.4066 40.1975C69.5639 40.4213 69.8723 40.8688 70.0235 41.0986L70.2291 41.407L70.0537 41.7336C65.6512 49.8735 56.2957 54.651 47.3092 53.3568L47.2366 53.3387L46.8738 53.2419C44.0859 52.4921 41.2012 51.7119 39.0786 49.559C38.758 49.2204 38.4254 48.8998 38.0989 48.5854C37.1373 47.6541 36.1455 46.6986 35.5105 45.4226L35.3533 45.1262C34.7788 44.0437 34.1801 42.931 33.8354 41.7094C27.1892 41.7336 20.4463 41.7275 13.921 41.7215H5.72067C5.23082 41.7215 4.73493 41.7638 4.28137 41.8243C3.84595 43.439 3.30168 45.0355 2.7695 46.5837C2.38851 47.6904 2.00147 48.8273 1.65676 49.9642C4.17251 49.9642 6.69431 49.9642 9.21006 49.9642C13.147 49.9642 17.0839 49.9642 21.0208 49.9521C21.1962 49.9521 21.3413 49.9521 21.4925 49.9521C21.9884 49.9461 22.5629 49.9521 23.1193 50.1577L23.2704 50.2122L23.3733 50.3391C23.8571 50.9197 24.1897 51.5668 24.5102 52.1957C24.746 52.6553 24.9637 53.0908 25.2359 53.4838C28.6285 58.7089 34.2224 62.7425 40.5965 64.5507C41.1286 64.6475 41.7153 64.7684 42.3079 64.8954C44.225 65.3006 46.0392 65.6876 47.9079 65.5425H47.9442H47.9804C52.7156 65.73 57.7592 64.587 63.849 61.9261L64.5082 61.5572C66.0624 60.6924 67.665 59.8035 69.1527 58.8056L70.2896 58.0376L70.1082 59.3983C69.9086 60.9041 69.703 62.4099 69.4913 63.9097L69.2373 65.7542H74.6498C75.6114 65.7542 76.5669 65.7542 77.5284 65.7542Z" fill="white"/>
</g>
<defs>
<clipPath id="clip0_39_667">
<rect width="88.9403" height="67" fill="white"/>
</clipPath>
</defs>
</svg>
