<svg width="140.000000" height="29.324692" viewBox="0 0 140 29.3247" fill="none" xmlns="http://www.w3.org/2000/svg" xmlns:xlink="http://www.w3.org/1999/xlink">
	<desc>
			Created with Pixso.
	</desc>
	<defs>
		<clipPath id="clip36_294">
			<rect id="Layer_1" rx="0.000000" width="139.728317" height="29.053017" transform="translate(0.135838 0.135838)" fill="white" fill-opacity="0"/>
		</clipPath>
	</defs>
	<rect id="Layer_1" rx="0.000000" width="139.728317" height="29.053017" transform="translate(0.135838 0.135838)" fill="#FFFFFF" fill-opacity="0"/>
	<g clip-path="url(#clip36_294)">
		<path id="Vector" d="M62.11 8.05C64.13 7.48 66.16 6.91 68.18 6.34C67.97 8.06 67.74 9.79 67.53 11.52C68.71 11.52 69.89 11.52 71.07 11.52C70.84 13.32 70.61 15.13 70.38 16.94C69.19 16.94 68.01 16.93 66.82 16.95C66.67 18.39 66.45 19.83 66.29 21.28C66.22 21.99 66.3 22.83 66.9 23.31C67.6 23.85 68.54 23.69 69.36 23.61C69.12 25.42 68.9 27.24 68.66 29.05C66.75 29.34 64.64 29.6 62.85 28.68C61.4 27.95 60.63 26.37 60.42 24.82C60.04 22.18 60.73 19.56 60.97 16.94C60.28 16.94 59.58 16.94 58.89 16.94C59.12 15.13 59.35 13.33 59.58 11.52C60.27 11.52 60.97 11.52 61.66 11.52C61.81 10.37 61.96 9.21 62.1 8.06L62.11 8.05Z" fill="#FFB700" fill-opacity="1.000000" fill-rule="nonzero"/>
		<path id="Vector" d="M43.62 12.66C46.37 11.04 49.82 10.67 52.87 11.6C55.2 12.3 57.19 14.2 57.75 16.6C58.17 18.04 57.93 19.54 57.72 20.99C53.35 20.99 48.98 20.99 44.61 20.99C44.67 21.77 44.87 22.58 45.45 23.14C46.25 23.94 47.48 24.1 48.56 23.97C49.67 23.85 50.75 23.29 51.41 22.36C53.46 22.33 55.5 22.36 57.55 22.35C57.48 22.88 57.47 23.44 57.19 23.92C55.71 26.65 52.84 28.43 49.84 29.05C47.58 29.49 45.16 29.43 43.03 28.5C41.43 27.81 40.08 26.55 39.37 24.95C38.46 22.96 38.52 20.65 39.09 18.58C39.77 16.12 41.42 13.95 43.62 12.66L43.62 12.66ZM45.36 17.86C47.57 17.87 49.77 17.87 51.97 17.86C51.68 17.23 51.26 16.62 50.62 16.33C48.8 15.5 46.42 16.14 45.36 17.86L45.36 17.86Z" fill="#FFB700" fill-opacity="1.000000" fill-rule="nonzero"/>
		<path id="Vector" d="M78.62 13.19C79.66 12.14 81.01 11.32 82.5 11.14C83.89 11 85.39 11.21 86.51 12.08C87.11 12.52 87.52 13.16 87.85 13.81C89.03 12.43 90.67 11.37 92.51 11.15C93.95 11 95.51 11.18 96.74 12.02C97.71 12.69 98.34 13.77 98.64 14.89C99.05 16.42 99 18.02 98.8 19.57C98.4 22.68 98.02 25.79 97.61 28.9C95.67 28.89 93.73 28.9 91.79 28.9C92.19 25.79 92.59 22.67 92.98 19.56C93.07 18.7 92.99 17.72 92.36 17.06C91.68 16.38 90.54 16.51 89.78 16.99C88.81 17.61 88.41 18.78 88.27 19.86C87.89 22.87 87.5 25.88 87.13 28.89C85.19 28.91 83.24 28.89 81.3 28.9C81.69 25.79 82.1 22.68 82.48 19.57C82.59 18.64 82.48 17.53 81.69 16.91C80.87 16.34 79.7 16.61 78.97 17.2C78.28 17.78 77.94 18.67 77.82 19.54C77.42 22.66 77.03 25.79 76.63 28.91C74.68 28.9 72.72 28.91 70.77 28.9C71.51 23.11 72.24 17.32 72.98 11.52C74.93 11.52 76.88 11.52 78.84 11.52C78.77 12.08 78.7 12.64 78.62 13.2L78.62 13.19Z" fill="#FFB700" fill-opacity="1.000000" fill-rule="nonzero"/>
		<path id="Vector" d="M108.97 11.29C111.56 10.85 114.42 11.11 116.63 12.63C118.34 13.77 119.42 15.71 119.64 17.73C119.93 20.39 119.2 23.17 117.56 25.29C115.97 27.36 113.56 28.7 111.01 29.13C108.67 29.52 106.14 29.34 104.04 28.18C102.21 27.2 100.89 25.37 100.5 23.34C100.03 20.8 100.57 18.08 101.94 15.89C103.47 13.43 106.13 11.78 108.96 11.29L108.97 11.29ZM109.46 16.71C107.1 17.09 105.74 19.86 106.52 22.03C106.82 22.9 107.64 23.51 108.52 23.69C109.86 23.99 111.4 23.72 112.44 22.77C113.37 21.92 113.77 20.62 113.73 19.39C113.69 18.57 113.34 17.72 112.65 17.23C111.74 16.57 110.53 16.5 109.46 16.71L109.46 16.71Z" fill="#FFB700" fill-opacity="1.000000" fill-rule="nonzero"/>
		<path id="Vector" d="M128.45 13.3C129.89 11.95 131.83 11.1 133.82 11.1C135.34 11.07 136.96 11.41 138.12 12.46C139.29 13.5 139.79 15.08 139.94 16.59C140.13 18.38 139.81 20.16 139.59 21.93C139.3 24.26 139 26.58 138.71 28.9L132.85 28.9C133.22 25.95 133.6 23 133.97 20.05C134.07 19.25 134.02 18.37 133.56 17.68C133.19 17.09 132.54 16.71 131.85 16.64C130.79 16.52 129.64 16.8 128.85 17.54C128.14 18.18 127.75 19.1 127.61 20.02C127.2 22.97 126.9 25.94 126.45 28.89C124.5 28.92 122.56 28.89 120.62 28.9C121.36 23.11 122.09 17.31 122.83 11.52C124.78 11.52 126.73 11.52 128.68 11.52C128.61 12.12 128.54 12.71 128.45 13.31L128.45 13.3Z" fill="#FFB700" fill-opacity="1.000000" fill-rule="nonzero"/>
		<path id="Vector" d="M31.77 1.32C25.93 -1.66 19.17 1.32 19.17 1.32C19.17 1.32 15.33 2.62 11.58 7.78C11.58 7.78 11.58 7.78 11.58 7.79C9.35 7.79 7.11 7.78 4.88 7.78C4.65 7.78 4.41 7.78 4.05 7.79C3.7 9.17 3.1 10.6 2.71 11.96L8.03 11.96C9.21 11.95 10.38 11.95 11.55 11.94L13.4 11.96L15.96 11.96C16.1 11.63 17.65 8.13 21.66 6.57C26.34 4.75 31.08 7.67 31.58 9.8L38.33 9.83C38.33 9.83 37.61 4.31 31.77 1.32L31.77 1.32Z" fill="#FFFFFF" fill-opacity="1.000000" fill-rule="nonzero"/>
		<path id="Vector" d="M24.27 11.7C23.9 11.7 23.08 11.7 22.69 11.7L20.3 13.97L20.89 17.51C23.88 17.51 26.87 17.48 29.86 17.52C29.93 17.62 30.06 17.81 30.13 17.91C28.28 21.32 24.27 23.43 20.42 22.88C19.2 22.54 17.89 22.22 16.97 21.29C16.44 20.73 15.8 20.25 15.45 19.54C15.15 18.97 14.82 18.4 14.68 17.76C10.5 17.78 6.32 17.77 2.14 17.77C1.86 17.77 1.57 17.8 1.29 17.84C0.93 19.23 0.38 20.55 0 21.93C2.95 21.92 5.9 21.94 8.85 21.92C9.13 21.94 9.42 21.9 9.68 22C10.02 22.4 10.18 22.92 10.48 23.36C12.06 25.79 14.59 27.53 17.37 28.32C18.46 28.52 19.55 28.85 20.67 28.76C23.13 28.86 25.53 28.13 27.75 27.15C28.55 26.71 29.36 26.27 30.12 25.76C29.99 26.79 29.84 27.83 29.7 28.86C31.79 28.86 33.88 28.86 35.97 28.86C36.37 26.2 36.74 23.53 37.11 20.87C37.49 17.82 37.99 14.79 38.35 11.74C33.66 11.65 28.96 11.73 24.27 11.7L24.27 11.7Z" fill="#FFB700" fill-opacity="1.000000" fill-rule="nonzero"/>
	</g>
</svg>
