<svg width="68" height="51" viewBox="0 0 68 51" fill="none" xmlns="http://www.w3.org/2000/svg">
<g opacity="0.2" clip-path="url(#clip0_93_666)">
<path d="M28.7068 21.8719H24.0215L20.8557 21.8356C18.8645 21.8447 16.8598 21.8583 14.8551 21.8719H5.13525L5.30307 21.2778C5.60696 20.2119 5.98795 19.1097 6.35987 18.0484C6.80436 16.7648 7.26699 15.4359 7.59355 14.1614L7.67973 13.8212L8.02897 13.8121C8.64581 13.7985 9.06763 13.794 9.45769 13.7985H20.6879C27.0695 5.10831 33.4783 2.86772 33.7504 2.77247C33.8275 2.73619 45.5793 -2.34369 55.6438 2.79969C65.731 7.95214 67.1007 17.6039 67.1143 17.7037L67.1824 18.2298L54.7412 18.1709L54.655 17.8125C54.3058 16.3339 52.5868 14.5923 50.2736 13.3767C48.4911 12.4379 43.7605 10.4921 38.3132 12.6102C31.6595 15.2 29.0923 20.9376 28.8247 21.5816L28.7068 21.8674V21.8719ZM20.8602 20.9058L24.0261 20.9421H28.0945C28.7476 19.5361 31.5642 14.243 37.9776 11.7484C42.0642 10.1564 46.7041 10.4513 50.709 12.5558C53.1175 13.8212 54.8954 15.5901 55.4624 17.2456L66.0938 17.2955C65.6539 15.2635 63.5221 7.86596 55.222 3.6297C45.543 -1.31411 34.1994 3.58888 34.086 3.64331C33.9817 3.67959 27.5321 5.95193 21.3047 14.5378L21.1641 14.7283H20.9237H9.45315C9.14927 14.7283 8.8227 14.7283 8.40089 14.7329C8.07433 15.9348 7.64798 17.164 7.23524 18.3523C6.94043 19.205 6.63654 20.0849 6.37347 20.9421H14.8505C16.8553 20.9285 18.86 20.9149 20.8602 20.9058Z" fill="white"/>
<path d="M63.0098 50.75H62.6106C60.5696 50.75 58.5286 50.75 56.4875 50.75H51.3623L51.6979 48.3099C51.8068 47.5161 51.9202 46.7224 52.0245 45.9287C51.1355 46.482 50.2193 46.99 49.3304 47.4844L48.7997 47.7792C44.0691 49.8474 40.1639 50.7319 36.4719 50.5913C34.9434 50.7001 33.4648 50.3917 32.0315 50.0878C31.6007 49.9971 31.1652 49.9019 30.7298 49.8248C25.6953 48.396 21.3048 45.2347 18.6515 41.1391C18.4202 40.8034 18.2297 40.4361 18.0483 40.0777C17.8442 39.6741 17.6491 39.2931 17.3951 38.9665C17.1638 38.903 16.8962 38.903 16.615 38.9076C16.488 38.9076 16.3656 38.9076 16.2386 38.9076C13.304 38.9212 10.3468 38.9166 7.39412 38.9166C5.29867 38.9166 3.20322 38.9166 1.10777 38.9166H0.5L0.667818 38.327C0.971703 37.2521 1.33909 36.1817 1.69287 35.1521C2.11468 33.9138 2.55463 32.6303 2.88573 31.3512L2.96284 31.0519L3.27126 31.0065C3.72028 30.943 4.24641 30.875 4.78615 30.875H10.9364C15.9483 30.8795 21.137 30.8841 26.2305 30.8659H26.607L26.6886 31.2288C26.8972 32.1676 27.3735 33.0612 27.8316 33.9184L27.9586 34.1542C28.3713 34.9752 29.0244 35.6102 29.7184 36.2814C29.9769 36.5309 30.2309 36.7804 30.4758 37.0343C31.8864 38.4631 33.9274 39.0119 35.9004 39.5471L36.1453 39.6151C42.3092 40.4905 48.963 37.1387 52.0925 31.6143C52.0427 31.5372 51.9837 31.4555 51.9338 31.383C48.1602 31.3331 44.3276 31.3467 40.6175 31.3558C39.3566 31.3558 38.1002 31.3648 36.8393 31.3648H36.4447L35.3335 24.6839L39.7375 20.5157H39.9235C40.5766 20.5157 41.9736 20.5111 42.6041 20.4975H42.6131C45.8198 20.5202 49.0854 20.5111 52.2422 20.5021C56.9774 20.4884 61.8759 20.4748 66.6927 20.5701L67.2052 20.5792L67.1462 21.0871C66.8106 23.9264 66.4024 26.7975 66.0033 29.5778C65.6722 31.9091 65.3275 34.3175 65.0281 36.6942C64.4249 41.0438 63.7717 45.711 63.0687 50.369L63.0098 50.7636V50.75ZM58.6465 49.8157C59.8348 49.8157 61.0232 49.8157 62.2115 49.8157C62.8918 45.2937 63.5223 40.7717 64.1074 36.5536C64.4067 34.1769 64.7514 31.764 65.0825 29.4281C65.4544 26.8202 65.84 24.1305 66.162 21.4727C61.5221 21.391 56.8096 21.4046 52.2468 21.4182C49.09 21.4273 45.8243 21.4364 42.6131 21.4137C42.0326 21.4228 40.8125 21.4273 40.1049 21.4319L36.3268 25.0059L37.2248 30.426C38.3542 30.426 39.479 30.4214 40.6084 30.4169C44.4002 30.4078 48.3235 30.3942 52.1787 30.4486H52.4191L52.5552 30.6482C52.6731 30.816 52.9044 31.1517 53.0178 31.324L53.172 31.5553L53.0405 31.8003C49.7386 37.9052 42.722 41.4883 35.9821 40.5177L35.9276 40.5041L35.6555 40.4315C33.5646 39.8691 31.4011 39.284 29.8091 37.6693C29.5687 37.4153 29.3193 37.1749 29.0743 36.9391C28.3532 36.2406 27.6093 35.524 27.1331 34.567L27.0152 34.3447C26.5843 33.5329 26.1353 32.6983 25.8767 31.7821C20.8921 31.8003 15.8349 31.7957 10.941 31.7912H4.79069C4.4233 31.7912 4.05138 31.8229 3.71121 31.8683C3.38465 33.0793 2.97644 34.2767 2.57731 35.4378C2.29157 36.2678 2.00129 37.1205 1.74276 37.9732C3.62957 37.9732 5.52092 37.9732 7.40773 37.9732C10.3604 37.9732 13.3131 37.9732 16.2658 37.9641C16.3973 37.9641 16.5062 37.9641 16.6196 37.9641C16.9915 37.9596 17.4224 37.9641 17.8396 38.1184L17.953 38.1592L18.0301 38.2544C18.393 38.6898 18.6424 39.1752 18.8828 39.6469C19.0597 39.9916 19.223 40.3181 19.4271 40.6129C21.9716 44.5317 26.167 47.557 30.9475 48.9131C31.3467 48.9857 31.7866 49.0764 32.2311 49.1716C33.6689 49.4755 35.0296 49.7658 36.4311 49.6569H36.4583H36.4855C40.0369 49.7975 43.8196 48.9403 48.387 46.9446L48.8813 46.668C50.047 46.0194 51.2489 45.3526 52.3647 44.6043L53.2174 44.0283L53.0813 45.0488C52.9316 46.1781 52.7774 47.3075 52.6187 48.4323L52.4282 49.8157H56.4875C57.2087 49.8157 57.9253 49.8157 58.6465 49.8157Z" fill="white"/>
</g>
<defs>
<clipPath id="clip0_93_666">
<rect width="66.7052" height="50.25" fill="white" transform="translate(0.5 0.5)"/>
</clipPath>
</defs>
</svg>
